<svg width="720" height="21" viewBox="0 0 720 21" fill="none" xmlns="http://www.w3.org/2000/svg">
<g clip-path="url(#clip0_91_24496)">
<path d="M-1.54688 21.2292V0L9.06771 10.6146L-1.54688 21.2292Z" fill="#9D2F26"/>
<path d="M-1.54688 42.4583V21.2291L9.06771 31.8437L-1.54688 42.4583ZM9.06771 31.8437V10.6145L19.6823 21.2291L9.06771 31.8437ZM-33.3854 10.6145V31.8437L-44 21.2291L-33.3854 10.6145Z" fill="#9D2F26"/>
<path d="M62.1353 21.2292V0L72.7498 10.6146L62.1353 21.2292Z" fill="#9D2F26"/>
<path d="M51.521 21.2292V0L62.1356 10.6146L51.521 21.2292Z" fill="#6C2019"/>
<path d="M62.1353 42.4583V21.2291L72.7498 31.8437L62.1353 42.4583ZM72.7498 31.8437V10.6145L83.3644 21.2291L72.7498 31.8437ZM30.2967 10.6145V31.8437L19.6821 21.2291L30.2967 10.6145Z" fill="#9D2F26"/>
<path d="M40.9062 0V21.2292L30.2969 10.6146L40.9062 0Z" fill="#9D2F26"/>
<path d="M51.5208 0V21.2292L40.9062 10.6146L51.5208 0Z" fill="#6C2019"/>
<path d="M125.818 21.2292V0L136.432 10.6146L125.818 21.2292Z" fill="#9D2F26"/>
<path d="M115.203 21.2292V0L125.818 10.6146L115.203 21.2292Z" fill="#6C2019"/>
<path d="M125.818 42.4583V21.2291L136.432 31.8437L125.818 42.4583ZM136.432 31.8437V10.6145L147.047 21.2291L136.432 31.8437ZM93.9793 10.6145V31.8437L83.3647 21.2291L93.9793 10.6145Z" fill="#9D2F26"/>
<path d="M104.588 0V21.2292L93.979 10.6146L104.588 0Z" fill="#9D2F26"/>
<path d="M115.203 0V21.2292L104.588 10.6146L115.203 0Z" fill="#6C2019"/>
<path d="M189.5 21.2292V0L200.115 10.6146L189.5 21.2292Z" fill="#9D2F26"/>
<path d="M178.885 21.2292V0L189.5 10.6146L178.885 21.2292Z" fill="#6C2019"/>
<path d="M189.5 42.4583V21.2291L200.115 31.8437L189.5 42.4583ZM200.115 31.8437V10.6145L210.729 21.2291L200.115 31.8437ZM157.656 10.6145V31.8437L147.047 21.2291L157.656 10.6145Z" fill="#9D2F26"/>
<path d="M168.271 0V21.2292L157.662 10.6146L168.271 0Z" fill="#9D2F26"/>
<path d="M178.886 0V21.2292L168.271 10.6146L178.886 0Z" fill="#6C2019"/>
<path d="M253.182 21.2292V0L263.797 10.6146L253.182 21.2292Z" fill="#9D2F26"/>
<path d="M242.568 21.2292V0L253.182 10.6146L242.568 21.2292Z" fill="#6C2019"/>
<path d="M253.182 42.4583V21.2291L263.797 31.8437L253.182 42.4583ZM263.797 31.8437V10.6145L274.406 21.2291L263.797 31.8437ZM221.338 10.6145V31.8437L210.729 21.2291L221.338 10.6145Z" fill="#9D2F26"/>
<path d="M231.953 0V21.2292L221.338 10.6146L231.953 0Z" fill="#9D2F26"/>
<path d="M242.568 0V21.2292L231.953 10.6146L242.568 0Z" fill="#6C2019"/>
<path d="M316.865 21.2292V0L327.479 10.6146L316.865 21.2292Z" fill="#9D2F26"/>
<path d="M306.25 21.2292V0L316.865 10.6146L306.25 21.2292Z" fill="#6C2019"/>
<path d="M327.479 31.8437V10.6145L338.089 21.2291L327.479 31.8437ZM285.021 10.6145V31.8437L274.412 21.2291L285.021 10.6145Z" fill="#9D2F26"/>
<path d="M295.636 0V21.2292L285.021 10.6146L295.636 0Z" fill="#9D2F26"/>
<path d="M306.25 0V21.2292L295.635 10.6146L306.25 0Z" fill="#6C2019"/>
<path d="M380.547 21.2292V0L391.161 10.6146L380.547 21.2292Z" fill="#9D2F26"/>
<path d="M369.932 21.2292V0L380.547 10.6146L369.932 21.2292Z" fill="#6C2019"/>
<path d="M380.547 42.4583V21.2291L391.161 31.8437L380.547 42.4583ZM391.161 31.8437V10.6145L401.771 21.2291L391.161 31.8437ZM348.703 10.6145V31.8437L338.094 21.2291L348.703 10.6145Z" fill="#9D2F26"/>
<path d="M359.318 0V21.2292L348.703 10.6146L359.318 0Z" fill="#9D2F26"/>
<path d="M369.932 0V21.2292L359.318 10.6146L369.932 0Z" fill="#6C2019"/>
<path d="M444.229 21.2292V0L454.844 10.6146L444.229 21.2292Z" fill="#9D2F26"/>
<path d="M433.615 21.2292V0L444.229 10.6146L433.615 21.2292Z" fill="#6C2019"/>
<path d="M454.844 31.8437V10.6145L465.453 21.2291L454.844 31.8437ZM412.385 10.6145V31.8437L401.776 21.2291L412.385 10.6145Z" fill="#9D2F26"/>
<path d="M423 0V21.2292L412.385 10.6146L423 0Z" fill="#9D2F26"/>
<path d="M433.615 0V21.2292L423 10.6146L433.615 0Z" fill="#6C2019"/>
<path d="M507.912 21.2292V0L518.526 10.6146L507.912 21.2292Z" fill="#9D2F26"/>
<path d="M497.297 21.2292V0L507.911 10.6146L497.297 21.2292Z" fill="#6C2019"/>
<path d="M507.912 42.4583V21.2291L518.526 31.8437L507.912 42.4583ZM518.526 31.8437V10.6145L529.136 21.2291L518.526 31.8437ZM476.068 10.6145V31.8437L465.458 21.2291L476.068 10.6145Z" fill="#9D2F26"/>
<path d="M486.682 0V21.2292L476.068 10.6146L486.682 0Z" fill="#9D2F26"/>
<path d="M497.297 0V21.2292L486.682 10.6146L497.297 0Z" fill="#6C2019"/>
<path d="M571.594 21.2292V0L582.203 10.6146L571.594 21.2292Z" fill="#9D2F26"/>
<path d="M560.979 21.2292V0L571.594 10.6146L560.979 21.2292Z" fill="#6C2019"/>
<path d="M571.594 42.4583V21.2291L582.203 31.8437L571.594 42.4583ZM582.208 31.8437V10.6145L592.818 21.2291L582.208 31.8437ZM539.75 10.6145V31.8437L529.135 21.2291L539.75 10.6145Z" fill="#9D2F26"/>
<path d="M550.365 0V21.2292L539.75 10.6146L550.365 0Z" fill="#9D2F26"/>
<path d="M560.979 0V21.2292L550.365 10.6146L560.979 0Z" fill="#6C2019"/>
<path d="M635.276 21.2292V0L645.885 10.6146L635.276 21.2292Z" fill="#9D2F26"/>
<path d="M624.662 21.2292V0L635.276 10.6146L624.662 21.2292Z" fill="#6C2019"/>
<path d="M635.276 42.4583V21.2291L645.886 31.8437L635.276 42.4583ZM645.886 31.8437V10.6145L656.5 21.2291L645.886 31.8437ZM603.432 10.6145V31.8437L592.818 21.2291L603.432 10.6145Z" fill="#9D2F26"/>
<path d="M614.047 0V21.2292L603.432 10.6146L614.047 0Z" fill="#9D2F26"/>
<path d="M624.661 0V21.2292L614.047 10.6146L624.661 0Z" fill="#6C2019"/>
<path d="M698.958 21.2292V0L709.568 10.6146L698.958 21.2292Z" fill="#9D2F26"/>
<path d="M688.344 21.2292V0L698.958 10.6146L688.344 21.2292Z" fill="#6C2019"/>
<path d="M709.568 31.8437V10.6145L720.182 21.2291L709.568 31.8437ZM667.115 10.6145V31.8437L656.5 21.2291L667.115 10.6145Z" fill="#9D2F26"/>
<path d="M677.729 0V21.2292L667.115 10.6146L677.729 0Z" fill="#9D2F26"/>
<path d="M688.344 0V21.2292L677.729 10.6146L688.344 0Z" fill="#6C2019"/>
</g>
<defs>
<clipPath id="clip0_91_24496">
<rect width="764" height="21" fill="white" transform="translate(-44)"/>
</clipPath>
</defs>
</svg>
