<svg width="141" height="84" viewBox="0 0 141 84" fill="none" xmlns="http://www.w3.org/2000/svg">
<g filter="url(#filter0_d_1652_59784)">
<path d="M97.2388 43.8857V43.9657C97.2388 49.3143 92.8678 53.2457 85.7024 53.2457C83.3482 53.3257 81.0045 52.9256 78.8498 52.076C76.6952 51.2264 74.7864 49.9496 73.2688 48.3429L78.191 44.2514C79.0926 45.3101 80.255 46.1699 81.5885 46.7644C82.9221 47.3589 84.391 47.6721 85.8819 47.68C88.5224 47.68 90.3939 46.3429 90.3939 44.2514V44.1257C90.3939 41.84 88.0738 40.5143 84.1514 40.5143H81.2033L80.1009 36.5714L90.3554 27.4286L86.2408 29.7143H75.1915V24.3772H96.7389V29.0743L88.6763 35.9314C93.0088 36.5829 97.2388 38.6057 97.2388 43.9314M77.2424 11.4286C77.213 10.8296 77.3199 10.2315 77.5564 9.67023C77.793 9.10899 78.1545 8.59621 78.6191 8.16275C79.0837 7.72929 79.6419 7.3841 80.26 7.14794C80.8781 6.91179 81.5434 6.78955 82.2159 6.78858H85.4845L84.6001 7.1543V14.1714C84.5939 14.6122 84.6369 15.0525 84.7283 15.4857C84.7756 15.6979 84.8486 15.9048 84.9462 16.1029H82.2543C81.5779 16.0987 80.9092 15.9734 80.2881 15.7344C79.667 15.4955 79.106 15.1477 78.6386 14.7117C78.1711 14.2757 77.8066 13.7604 77.5668 13.1965C77.327 12.6325 77.2167 12.0313 77.2424 11.4286ZM82.2159 17.3143H85.1128V16.3543L85.2025 16.48C85.411 16.7532 85.6991 16.9705 86.0357 17.1086C86.4394 17.2654 86.8774 17.3396 87.3175 17.3257H112.8V5.58858H111.403V16.0914H87.356C87.1333 16.1015 86.9108 16.0704 86.7023 16C86.534 15.9295 86.395 15.8135 86.3049 15.6686C86.1954 15.4837 86.1258 15.2821 86.0998 15.0743C86.0757 14.7775 86.0757 14.4796 86.0998 14.1829V5.58858H82.2543C81.3921 5.57609 80.5359 5.71887 79.737 6.00837C78.9381 6.29788 78.213 6.72815 77.605 7.27342C76.997 7.81869 76.5187 8.46774 76.1987 9.18172C75.8787 9.89569 75.7236 10.6599 75.7427 11.4286C75.7274 12.1876 75.8818 12.9417 76.1971 13.6469C76.5123 14.3521 76.9819 14.9943 77.5786 15.5358C78.1753 16.0774 78.887 16.5075 79.6722 16.8011C80.4574 17.0947 81.3004 17.2458 82.1518 17.2457M123.055 4.34287H120.055V3.32572C120.027 2.91051 120.178 2.5014 120.478 2.18287C120.652 2.04552 120.855 1.94122 121.075 1.87637C121.296 1.81152 121.529 1.78748 121.76 1.80572H122.747V2.62858H121.773C121.696 2.61808 121.618 2.6218 121.543 2.6395C121.468 2.65719 121.398 2.68849 121.337 2.73144C121.253 2.83804 121.212 2.96708 121.222 3.09715V3.42858H123.055V4.34287ZM126.592 17.4629C126.207 17.4633 125.823 17.4172 125.452 17.3257L125.823 16.1829L126.208 16.2629H126.541C126.765 16.269 126.987 16.234 127.195 16.16C127.363 16.0895 127.502 15.9735 127.592 15.8286C127.702 15.6437 127.771 15.4421 127.797 15.2343C127.821 14.9375 127.821 14.6396 127.797 14.3429V5.58858H129.195V14.2972C129.2 14.7379 129.157 15.1781 129.066 15.6114C128.993 15.9662 128.84 16.3042 128.618 16.6057C128.409 16.8785 128.121 17.0957 127.785 17.2343C127.381 17.3911 126.943 17.4653 126.503 17.4514M86.0229 4.34287H84.6001V3.09715H85.9973V4.34287H86.0229ZM116.787 8.64001C116.997 8.27125 117.289 7.94459 117.645 7.68001C118.007 7.41163 118.419 7.20267 118.863 7.06287C119.308 6.92541 119.776 6.85587 120.247 6.85715H122.503L121.773 7.20001V12.7886H120.299C119.798 12.7844 119.3 12.7112 118.825 12.5714C118.382 12.4504 117.969 12.2566 117.607 12C117.26 11.7544 116.979 11.4418 116.787 11.0857C116.582 10.6962 116.481 10.2699 116.492 9.84001C116.485 9.41149 116.595 8.98786 116.812 8.60572M116.812 13.0172C117.371 13.3641 117.997 13.6159 118.658 13.76C119.383 13.9231 120.128 14.0038 120.876 14H121.247L121.773 13.1543V14.4C121.803 14.6621 121.762 14.9268 121.652 15.1716C121.543 15.4163 121.369 15.6339 121.145 15.8057C120.622 16.1135 120.001 16.2619 119.376 16.2286C118.983 16.2311 118.592 16.1928 118.209 16.1143C117.804 16.0212 117.409 15.895 117.03 15.7372L116.594 16.88C117.059 17.0381 117.534 17.1716 118.017 17.28C118.437 17.3717 118.867 17.4178 119.299 17.4172C119.835 17.46 120.375 17.4052 120.886 17.2558C121.397 17.1065 121.869 16.8658 122.273 16.5486C122.902 15.9225 123.233 15.1027 123.196 14.2629V5.58858H120.876C120.074 5.58153 119.277 5.69354 118.517 5.92001C117.832 6.12424 117.197 6.44223 116.646 6.85715C116.148 7.22563 115.746 7.68566 115.466 8.20572C115.183 8.73769 115.039 9.3198 115.043 9.90858C115.023 10.5613 115.181 11.2086 115.505 11.7943C115.809 12.3105 116.249 12.7535 116.787 13.0857M83.2285 4.34287H81.8313V3.09715H83.2285V4.34287ZM68.7568 5.57715H70.2053V17.2686H69.0132L59.7072 6.75429L60.5275 8.45715V17.2686H59.0919V5.57715H60.4763L69.3593 15.6343L68.7568 14.2057V5.57715ZM14.2026 17.3486L8.5498 5.57715H10.2546L11.0109 7.3143L14.8563 15.6457L15.2281 16.4457L15.0871 15.1657L19.5478 5.58858H21.1373L15.5101 17.3486H14.2283H14.2026ZM39.2237 5.57715H40.7106V17.2572H39.2237V5.57715ZM55.1183 11.4286C55.1512 12.0469 55.043 12.6648 54.8002 13.2447C54.5573 13.8247 54.1849 14.3546 53.7054 14.8024C53.226 15.2501 52.6495 15.6064 52.011 15.8496C51.3725 16.0928 50.6853 16.2179 49.991 16.2172C49.3003 16.2068 48.6188 16.0743 47.9861 15.8273C47.3533 15.5803 46.7819 15.2237 46.3049 14.7783C45.8279 14.3328 45.4549 13.8073 45.2075 13.2323C44.9601 12.6573 44.8433 12.0442 44.8637 11.4286C44.8307 10.8102 44.939 10.1924 45.1818 9.61241C45.4247 9.03247 45.7971 8.50255 46.2766 8.05479C46.756 7.60702 47.3324 7.25074 47.9709 7.00754C48.6094 6.76435 49.2967 6.63931 49.991 6.64001C50.6816 6.65033 51.3631 6.78284 51.9959 7.02984C52.6287 7.27684 53.2001 7.63343 53.6771 8.0789C54.1541 8.52436 54.5271 9.04985 54.7745 9.62487C55.0219 10.1999 55.1387 10.813 55.1183 11.4286ZM49.991 5.37144C49.0989 5.36206 48.2138 5.51276 47.3884 5.81456C46.563 6.11637 45.814 6.56312 45.1862 7.12823C44.5584 7.69334 44.0644 8.36526 43.7338 9.10404C43.4031 9.84281 43.2425 10.6333 43.2614 11.4286C43.2219 12.2347 43.3658 13.0397 43.6845 13.7949C44.0033 14.5502 44.4902 15.24 45.1161 15.8229C45.7419 16.4059 46.4936 16.8698 47.3259 17.1867C48.1582 17.5036 49.0539 17.667 49.9589 17.667C50.864 17.667 51.7597 17.5036 52.592 17.1867C53.4243 16.8698 54.176 16.4059 54.8018 15.8229C55.4276 15.24 55.9146 14.5502 56.2333 13.7949C56.5521 13.0397 56.696 12.2347 56.6564 11.4286C56.6842 10.6361 56.5317 9.84682 56.2082 9.10828C55.8847 8.36974 55.3969 7.69724 54.7741 7.13129C54.1513 6.56534 53.4064 6.11765 52.5844 5.8152C51.7624 5.51275 50.8802 5.3618 49.991 5.37144ZM36.7883 14.0914C36.7883 16.0914 34.9168 17.3943 32.3019 17.3943C30.3076 17.4266 28.3773 16.7668 26.9183 15.5543L27.8412 14.5829C28.4288 15.1132 29.1298 15.533 29.9025 15.8177C30.6753 16.1023 31.5043 16.2459 32.3403 16.24C34.1093 16.24 35.2629 15.4057 35.2629 14.2514C35.2629 13.1657 34.6092 12.5486 31.8533 12.0343C28.8282 11.4514 27.4438 10.5829 27.4438 8.60572C27.4438 6.76572 29.264 5.41715 31.7635 5.41715C33.4523 5.37256 35.1 5.88533 36.3909 6.85715L35.5321 7.8743C34.4672 7.04674 33.0992 6.59547 31.6866 6.60572C29.9818 6.60572 28.8923 7.44001 28.8923 8.49144C28.8923 9.63429 29.5716 10.2057 32.4557 10.7772C35.3398 11.3486 36.737 12.2972 36.737 14.08M24.611 17.2572H23.1753V5.57715H24.6623V17.2686L24.611 17.2572ZM110.877 18.5714H112.275V19.8172H110.916V18.5714H110.877ZM108.083 18.5714H109.48V19.8172H108.121V18.5714H108.083ZM20.2784 47.3714H32.4429V52.7657H8.84462V47.8172L19.4581 40.08C23.4189 37.1657 24.9699 35.6229 24.9699 33.2229C25.0175 32.7164 24.9382 32.2069 24.7378 31.7311C24.5374 31.2553 24.2209 30.8252 23.8111 30.4719C23.4014 30.1186 22.9086 29.851 22.3686 29.6883C21.8286 29.5256 21.2547 29.4721 20.6886 29.5314C18.2275 29.5314 16.5484 30.7429 14.177 33.3372L9.2548 29.8514C12.3953 26.0457 15.446 24 21.1501 24C27.7514 24 32.1353 27.4286 32.1353 32.7543V32.8343C32.1353 37.5772 29.405 39.9314 23.7522 43.8172L16.7791 48.6057L15.3819 49.52L20.2784 47.3714ZM125.618 38.6514C125.67 39.798 125.461 40.942 125.003 42.0144C124.546 43.0868 123.849 44.0654 122.955 44.8911C122.061 45.7167 120.989 46.3724 119.804 46.8183C118.618 47.2643 117.343 47.4913 116.056 47.4857C114.759 47.4848 113.475 47.2514 112.281 46.7993C111.087 46.3473 110.007 45.6858 109.105 44.8542C108.204 44.0226 107.499 43.0379 107.032 41.9586C106.566 40.8793 106.348 39.7274 106.391 38.5714V38.4914C106.339 37.3449 106.548 36.2009 107.006 35.1285C107.464 34.056 108.16 33.0775 109.054 32.2518C109.948 31.4261 111.02 30.7705 112.206 30.3246C113.392 29.8786 114.666 29.6516 115.953 29.6572C117.251 29.6581 118.534 29.8915 119.728 30.3435C120.922 30.7956 122.002 31.4571 122.904 32.2887C123.806 33.1203 124.511 34.105 124.977 35.1843C125.443 36.2636 125.661 37.4155 125.618 38.5714V38.6514ZM116.043 23.8972C113.837 23.8344 111.64 24.1674 109.581 24.8766C107.523 25.5857 105.645 26.6565 104.059 28.0253C102.474 29.3941 101.213 31.033 100.352 32.8446C99.4908 34.6563 99.0468 36.6038 99.0462 38.5714V38.6514C99.0462 46.72 106.109 53.2457 115.953 53.2457C118.159 53.3085 120.357 52.9754 122.415 52.2663C124.474 51.5571 126.352 50.4864 127.937 49.1176C129.522 47.7488 130.783 46.1099 131.644 44.2983C132.506 42.4866 132.95 40.5391 132.95 38.5714V38.4914C132.95 30.4229 125.887 23.8972 116.043 23.8972Z" fill="white"/>
<path d="M51.5036 22.0342L53.1187 23.4056L51.5677 24.8456L49.9526 23.4628L51.5036 22.0342Z" fill="white"/>
<path d="M55.208 23.4628L56.8231 24.8456L58.3613 23.4056L56.7462 22.0342L55.208 23.4628Z" fill="white"/>
<path d="M52.9263 25.2799L54.1825 26.3542L55.3874 25.2342L54.1312 24.1599L52.9263 25.2799Z" fill="white"/>
<path d="M57.541 25.8971L58.7972 26.96L60.0021 25.8514L58.7459 24.7771L57.541 25.8971Z" fill="white"/>
<path d="M50.8765 26.9851L52.0824 25.8627L53.3413 26.9379L52.1353 28.0603L50.8765 26.9851Z" fill="white"/>
<path d="M55.0928 27.12L56.349 28.1943L57.5539 27.0743L56.2977 26L55.0928 27.12Z" fill="white"/>
<path d="M53.439 28.4114L54.3234 29.1657L55.1694 28.3771L54.285 27.6228L53.439 28.4114Z" fill="white"/>
<path d="M56.7847 28.9944L57.6563 29.7601L58.5151 28.9715L57.6307 28.2058L56.7847 28.9944Z" fill="white"/>
<path d="M64.063 23.0129L66.8116 22.564L67.3128 25.0035L64.5642 25.4524L64.063 23.0129Z" fill="white"/>
<path d="M60.4839 24.0366L62.6903 23.6759L63.0925 25.6319L60.8861 25.9926L60.4839 24.0366Z" fill="white"/>
<path d="M64.748 26.759L66.9545 26.3983L67.3567 28.3543L65.1503 28.715L64.748 26.759Z" fill="white"/>
<path d="M61.709 27.0527L63.4237 26.7727L63.7378 28.3015L62.0231 28.5816L61.709 27.0527Z" fill="white"/>
<path d="M65.0332 29.9446L66.7479 29.6645L67.062 31.1934L65.3473 31.4734L65.0332 29.9446Z" fill="white"/>
<path d="M59.1455 27.6719L60.8602 27.3918L61.1743 28.9207L59.4596 29.2007L59.1455 27.6719Z" fill="white"/>
<path d="M62.2417 29.6777L63.9564 29.3977L64.2705 30.9265L62.5558 31.2066L62.2417 29.6777Z" fill="white"/>
<path d="M60.063 29.8616L61.2733 29.6635L61.4931 30.7314L60.2828 30.9294L60.063 29.8616Z" fill="white"/>
<path d="M62.376 32.0691L63.5864 31.8714L63.8058 32.9394L62.5954 33.137L62.376 32.0691Z" fill="white"/>
<path d="M72.2303 31.0056L71.0254 33.257L73.5506 34.3199L74.7427 32.0799L72.2303 31.0056Z" fill="white"/>
<path d="M68.6542 29.9771L67.6929 31.7713L69.7053 32.6285L70.6667 30.8342L68.6542 29.9771Z" fill="white"/>
<path d="M70.3076 34.4114L69.3462 36.2057L71.3586 37.0628L72.32 35.2571L70.3076 34.4114Z" fill="white"/>
<path d="M67.6546 33.0627L66.9111 34.457L68.4749 35.1199L69.2312 33.7256L67.6546 33.0627ZM68.4621 37.1427L67.7059 38.5485L69.2825 39.2113L70.0259 37.8056L68.4621 37.1427Z" fill="white"/>
<path d="M65.1674 32.2285L64.4111 33.6228L65.9878 34.2857L66.744 32.8914L65.1674 32.2285Z" fill="white"/>
<path d="M66.3724 35.4629L65.6289 36.8686L67.1927 37.5315L67.949 36.1257L66.3724 35.4629Z" fill="white"/>
<path d="M64.4753 34.48L63.9497 35.4628L65.0649 35.9314L65.5904 34.9486L64.4753 34.48Z" fill="white"/>
<path d="M64.8986 37.4856L64.373 38.4685L65.4882 38.937L66.0138 37.9542L64.8986 37.4856Z" fill="white"/>
<path d="M73.5894 41.7485L71.1411 42.9371L72.487 45.12L74.9225 43.92L73.5894 41.7485Z" fill="white"/>
<path d="M71.359 39.04L69.4106 40L70.4745 41.7486L72.4485 40.7886L71.359 39.04ZM69.7952 43.4972L67.834 44.4572L68.9107 46.2058L70.8719 45.2458L69.7952 43.4972Z" fill="white"/>
<path d="M68.5387 41.0286L67.0005 41.7714L67.8465 43.1314L69.3718 42.3886L68.5387 41.0286Z" fill="white"/>
<path d="M66.5006 44.7544L64.9624 45.4973L65.8084 46.8573L67.3338 46.1144L66.5006 44.7544Z" fill="white"/>
<path d="M67.0649 39.0515L65.5396 39.7944L66.3727 41.1544L67.8981 40.4115L67.0649 39.0515Z" fill="white"/>
<path d="M65.9111 42.3086L64.3857 43.0514L65.2189 44.4115L66.7443 43.6686L65.9111 42.3086Z" fill="white"/>
<path d="M65.0264 40.5256L63.9497 41.0513L64.5393 42.0113L65.6161 41.4856L65.0264 40.5256Z" fill="white"/>
<path d="M62.3145 43.6985L63.3936 43.1713L63.9788 44.1234L62.8996 44.6506L62.3145 43.6985Z" fill="white"/>
<path d="M64.5195 53.3235L64.8609 50.8622L67.6342 51.168L67.2928 53.6293L64.5195 53.3235Z" fill="white"/>
<path d="M65.103 49.5349L65.3772 47.5614L67.6033 47.8072L67.3292 49.7807L65.103 49.5349Z" fill="white"/>
<path d="M60.9087 52.343L61.1828 50.3695L63.409 50.6153L63.1349 52.5888L60.9087 52.343Z" fill="white"/>
<path d="M62.064 49.2983L62.2776 47.7558L64.0078 47.9463L63.7941 49.4888L62.064 49.2983Z" fill="white"/>
<path d="M57.9453 51.2512L58.1587 49.7086L59.8888 49.8988L59.6755 51.4414L57.9453 51.2512Z" fill="white"/>
<path d="M62.167 46.9238L62.3813 45.3813L64.1113 45.5724L63.897 47.1149L62.167 46.9238Z" fill="white"/>
<path d="M59.0938 48.9729L59.308 47.4304L61.0381 47.6214L60.8238 49.1639L59.0938 48.9729Z" fill="white"/>
<path d="M60.1245 46.666L60.2744 45.5886L61.4956 45.7236L61.3457 46.8011L60.1245 46.666Z" fill="white"/>
<path d="M57.0386 47.9634L57.188 46.8859L58.4093 47.0205L58.2598 48.098L57.0386 47.9634Z" fill="white"/>
<path d="M56.6052 55.6914L54.5543 54L52.6572 55.8171L54.7081 57.5086L56.6052 55.6914Z" fill="white"/>
<path d="M56.2332 20.9143L54.1822 19.2229L52.2852 21.04L54.3361 22.7315L56.2332 20.9143Z" fill="white"/>
<path d="M58.7841 52.9713L57.1434 51.6113L55.6309 53.0742L57.2588 54.4228L58.7841 52.9713Z" fill="white"/>
<path d="M53.5416 53.04L51.9009 51.6914L50.3755 53.1543L52.0162 54.5028L53.5416 53.04Z" fill="white"/>
<path d="M55.7848 51.2001L54.503 50.1487L53.3237 51.2801L54.5927 52.3315L55.7848 51.2001Z" fill="white"/>
<path d="M51.1574 50.6513L49.8884 49.5999L48.6963 50.7313L49.9781 51.7942L51.1574 50.6513ZM57.4255 49.337L56.1437 48.2742L54.9644 49.417L56.2334 50.4685L57.4255 49.337Z" fill="white"/>
<path d="M53.5802 49.3944L52.3112 48.3315L51.1191 49.4744L52.401 50.5258L53.5802 49.3944Z" fill="white"/>
<path d="M55.208 48.08L54.3107 47.3372L53.4775 48.1372L54.3748 48.88L55.208 48.08Z" fill="white"/>
<path d="M51.8623 47.5314L50.965 46.7886L50.1318 47.5886L51.0291 48.3314L51.8623 47.5314Z" fill="white"/>
<path d="M41.397 51.6917L44.1369 51.2022L44.6833 53.6339L41.9434 54.1233L41.397 51.6917Z" fill="white"/>
<path d="M45.6099 50.9973L47.8093 50.6044L48.2475 52.5542L46.048 52.9471L45.6099 50.9973Z" fill="white"/>
<path d="M41.4829 48.1736L43.6811 47.7748L44.1257 49.7235L41.9276 50.1222L41.4829 48.1736Z" fill="white"/>
<path d="M44.9346 48.3303L46.6439 48.025L46.9864 49.549L45.2771 49.8543L44.9346 48.3303Z" fill="white"/>
<path d="M47.4746 47.6768L49.184 47.3717L49.5262 48.8957L47.8168 49.2008L47.4746 47.6768Z" fill="white"/>
<path d="M44.4917 45.5686L46.2 45.2587L46.5475 46.7818L44.8393 47.0917L44.4917 45.5686Z" fill="white"/>
<path d="M47.1162 45.8828L48.3229 45.6676L48.5617 46.7323L47.355 46.9474L47.1162 45.8828Z" fill="white"/>
<path d="M44.7715 43.6953L45.9781 43.4801L46.217 44.5448L45.0103 44.7599L44.7715 43.6953Z" fill="white"/>
<path d="M36.3778 45.7485L37.5315 43.4971L34.9935 42.4685L33.8398 44.7199L36.3778 45.7485Z" fill="white"/>
<path d="M39.98 46.7316L40.9029 44.9258L38.8648 44.0916L37.9419 45.9087L39.98 46.7316Z" fill="white"/>
<path d="M36.1973 41.4915L37.124 39.6827L39.1643 40.5136L38.2377 42.3224L36.1973 41.4915Z" fill="white"/>
<path d="M39.3359 42.9988L40.0589 41.5844L41.6452 42.229L40.9222 43.6433L39.3359 42.9988Z" fill="white"/>
<path d="M43.0307 47.1658L43.7614 45.7601L42.1719 45.1086L41.4541 46.5258L43.0307 47.1658Z" fill="white"/>
<path d="M38.4468 38.9194L39.1705 37.5054L40.7565 38.1507L40.0327 39.5647L38.4468 38.9194Z" fill="white"/>
<path d="M41.8267 43.7893L42.5499 42.3751L44.136 43.0199L43.4128 44.4341L41.8267 43.7893Z" fill="white"/>
<path d="M40.5557 40.5613L41.2794 39.1473L42.8653 39.7926L42.1416 41.2066L40.5557 40.5613Z" fill="white"/>
<path d="M44.0561 42.1714L44.5688 41.1772L43.4536 40.7314L42.9409 41.7257L44.0561 42.1714Z" fill="white"/>
<path d="M43.582 39.1773L44.0947 38.183L42.9795 37.7258L42.4668 38.7201L43.582 39.1773Z" fill="white"/>
<path d="M34.8272 35.04L37.2499 33.8058L35.8655 31.6458L33.4429 32.88L34.8272 35.04Z" fill="white"/>
<path d="M37.0957 37.7029L39.0312 36.7201L37.9288 34.9829L35.9805 35.9772L37.0957 37.7029Z" fill="white"/>
<path d="M38.583 33.223L40.5185 32.2401L39.4161 30.5144L37.4678 31.4973L38.583 33.223Z" fill="white"/>
<path d="M39.8902 35.68L41.4027 34.9142L40.5311 33.5657L39.0186 34.3314L39.8902 35.68Z" fill="white"/>
<path d="M41.8515 31.92L43.364 31.1542L42.5052 29.8057L40.9927 30.5714L41.8515 31.92Z" fill="white"/>
<path d="M41.3901 37.6343L42.9154 36.8686L42.0438 35.52L40.5312 36.2857L41.3901 37.6343Z" fill="white"/>
<path d="M42.4794 34.3657L43.992 33.5886L43.1332 32.24L41.6206 33.0171L42.4794 34.3657Z" fill="white"/>
<path d="M43.4023 36.137L44.4662 35.5885L43.8637 34.6399L42.7998 35.1885L43.4023 36.137Z" fill="white"/>
<path d="M44.9917 33.4515L46.0556 32.9144L45.4404 31.9658L44.3765 32.503L44.9917 33.4515Z" fill="white"/>
<path d="M40.5991 25.5378L40.8947 23.0719L43.6732 23.3366L43.3777 25.8026L40.5991 25.5378Z" fill="white"/>
<path d="M40.6899 28.8872L40.9273 26.9099L43.1578 27.1228L42.9204 29.1001L40.6899 28.8872Z" fill="white"/>
<path d="M44.8408 26.0322L45.0782 24.0549L47.3087 24.2678L47.0713 26.2451L44.8408 26.0322Z" fill="white"/>
<path d="M44.2939 28.6951L44.4798 27.1496L46.2131 27.3153L46.0273 28.8608L44.2939 28.6951Z" fill="white"/>
<path d="M48.356 26.678L48.5409 25.1325L50.2743 25.2974L50.0894 26.8429L48.356 26.678Z" fill="white"/>
<path d="M44.2246 31.0671L44.4102 29.5217L46.1435 29.6871L45.958 31.2326L44.2246 31.0671Z" fill="white"/>
<path d="M47.2622 28.98L47.4481 27.4346L49.1814 27.6003L48.9955 29.1457L47.2622 28.98Z" fill="white"/>
<path d="M46.8457 30.9021L46.9753 29.8226L48.1989 29.9393L48.0693 31.0189L46.8457 30.9021Z" fill="white"/>
<path d="M49.897 29.5452L50.0259 28.4656L51.2496 28.5818L51.1206 29.6614L49.897 29.5452Z" fill="white"/>
<path d="M63.0526 39.8972C62.7029 39.722 62.3334 39.5803 61.9503 39.4744C60.9856 39.2023 59.9637 39.1319 58.9636 39.2687C58.5268 39.3371 58.0979 39.4404 57.6818 39.5772H57.5536C57.3178 39.658 57.0867 39.7496 56.8614 39.8515L56.2718 40.1487C55.8282 40.398 55.4002 40.6688 54.99 40.9601C54.6486 38.8707 54.6012 36.7514 54.849 34.6515C55.9001 35.2458 55.6053 36.9372 55.3873 37.3601C55.8219 36.9129 56.0928 36.3581 56.1638 35.7698C56.2349 35.1816 56.1026 34.588 55.7847 34.0687C55.9606 34.1971 56.1197 34.3428 56.259 34.5029C56.6056 34.9056 56.8107 35.3908 56.8486 35.8972C56.8658 36.1065 56.8658 36.3166 56.8486 36.5258V36.6629C57.069 36.2812 57.184 35.858 57.184 35.4287C57.184 34.9993 57.069 34.5761 56.8486 34.1944C56.692 33.9303 56.4934 33.6878 56.259 33.4744L56.0283 33.2687L56.259 33.3258C56.4698 33.3904 56.6685 33.4829 56.8486 33.6001C57.2274 33.8536 57.5165 34.1987 57.6818 34.5944C57.8091 34.8858 57.8743 35.1959 57.8741 35.5087C57.9874 35.202 58.0265 34.8775 57.9889 34.5564C57.9514 34.2353 57.838 33.925 57.6562 33.6458C57.4468 33.35 57.1611 33.1032 56.823 32.9258C56.6382 32.8246 56.4401 32.744 56.2333 32.6858C56.4294 32.6679 56.6269 32.6679 56.823 32.6858C57.1209 32.7319 57.4047 32.8331 57.6562 32.9829C57.8835 33.1173 58.0723 33.2974 58.2073 33.5087C58.1678 33.1229 57.9608 32.7661 57.6305 32.5144C57.3888 32.3311 57.1041 32.1983 56.7973 32.1258C56.5953 32.0588 56.384 32.0165 56.1693 32.0001C55.9153 31.9928 55.6623 32.0317 55.4258 32.1144C55.6092 31.8822 55.876 31.7128 56.1821 31.6344C56.3727 31.5811 56.5722 31.5579 56.7717 31.5658C56.9401 31.5712 57.1056 31.6062 57.2588 31.6687C57.1174 31.5216 56.9482 31.3979 56.7589 31.3029C56.5767 31.2121 56.3764 31.1539 56.1693 31.1315C55.8877 31.1034 55.6029 31.1477 55.3486 31.259C55.0942 31.3704 54.8809 31.5442 54.7336 31.7601C54.6695 31.6458 54.5926 31.5315 54.5413 31.4058C54.3924 31.0982 54.2848 30.776 54.2209 30.4458C54.1576 30.7798 54.05 31.1059 53.9004 31.4172C53.8431 31.5382 53.7789 31.6564 53.7082 31.7715C53.5776 31.577 53.3951 31.4144 53.1768 31.2982C52.9585 31.182 52.7113 31.1158 52.4574 31.1056C52.2034 31.0954 51.9505 31.1415 51.7214 31.2398C51.4923 31.338 51.2941 31.4854 51.1445 31.6687C51.4612 31.552 51.8121 31.5313 52.1433 31.6098C52.4745 31.6882 52.7676 31.8615 52.9775 32.1029C52.5701 31.9733 52.1287 31.954 51.709 32.0475C51.2893 32.1411 50.91 32.3433 50.619 32.6287C50.3994 32.8614 50.2651 33.1486 50.2344 33.4515C50.3356 33.3328 50.4566 33.2288 50.5933 33.1429C50.8558 32.9522 51.1604 32.8129 51.4873 32.7341C51.8141 32.6554 52.1559 32.6389 52.4904 32.6858C52.0726 32.7546 51.6804 32.9148 51.3493 33.1522C51.0181 33.3896 50.7584 33.6967 50.5933 34.0458C50.4142 34.536 50.4142 35.0642 50.5933 35.5544C50.5906 35.0579 50.7692 34.574 51.1022 34.1761C51.4352 33.7781 51.9045 33.4877 52.4392 33.3487C51.8729 33.7434 51.4796 34.3024 51.3274 34.9287C51.1752 35.5549 51.2738 36.209 51.606 36.7772C51.5115 36.2989 51.5588 35.8069 51.7431 35.3498C51.9275 34.8928 52.2425 34.4866 52.6571 34.1715C52.3392 34.6909 52.2069 35.2844 52.2779 35.8727C52.349 36.4609 52.6199 37.0158 53.0544 37.4629C52.8365 36.9944 52.5417 35.3487 53.5928 34.7544C53.8416 36.8542 53.7942 38.9736 53.4518 41.0629C52.6735 40.498 51.8107 40.0325 50.8882 39.6801L50.5677 39.5772C49.7708 39.3417 48.9326 39.2372 48.0938 39.2687C47.204 39.2983 46.3309 39.4929 45.5302 39.8401L45.2866 39.9544L45.5173 39.8972C46.3489 39.6815 47.2179 39.6041 48.081 39.6687C48.9371 39.742 49.7733 39.9429 50.5549 40.2629C51.6199 40.7132 52.6116 41.2898 53.5031 41.9772C52.5731 42.7916 51.5886 43.5549 50.5549 44.2629H50.4652C50.393 44.1528 50.2844 44.0653 50.1543 44.0125C50.0241 43.9597 49.8787 43.9441 49.7382 43.9679C49.5977 43.9917 49.4689 44.0537 49.3696 44.1454C49.2702 44.2371 49.2051 44.3541 49.1833 44.4801C49.1568 44.5705 49.1546 44.6653 49.1769 44.7566C49.1992 44.848 49.2453 44.9333 49.3115 45.0058C49.4625 45.1462 49.6613 45.238 49.877 45.2669C50.0927 45.2959 50.313 45.2603 50.5036 45.1658C51.7302 44.4847 52.8508 43.6623 53.8363 42.7201L54.1696 42.4458L54.5029 42.7201L56.1564 44.0915L56.7589 44.5715C57.0173 44.7666 57.2963 44.9388 57.5921 45.0858C57.7775 45.2083 58.0022 45.2744 58.233 45.2744C58.4638 45.2744 58.6884 45.2083 58.8739 45.0858C58.9361 45.0113 58.9807 44.9262 59.0049 44.8359C59.0292 44.7455 59.0326 44.6517 59.0149 44.5601C58.9852 44.4491 58.9215 44.3476 58.831 44.2669C58.7405 44.1862 58.6267 44.1294 58.5022 44.1029C58.3693 44.0754 58.2303 44.0836 58.1026 44.1263C57.9749 44.1689 57.8642 44.2443 57.7843 44.3429L57.5023 44.1829C57.2126 43.9986 56.9345 43.8002 56.6692 43.5887L56.0795 43.1087C55.6693 42.7772 55.2207 42.4115 54.7977 42.0458C55.2081 41.7299 55.6359 41.4324 56.0795 41.1544L56.6692 40.8115C56.9383 40.6744 57.2203 40.5372 57.5023 40.4115C57.9152 40.232 58.344 40.0829 58.7842 39.9658C59.7701 39.7091 60.8077 39.6506 61.8221 39.7944C62.191 39.8469 62.5551 39.9233 62.9116 40.0229" fill="white"/>
<path d="M53.2341 66.0915H54.0288V59.7029H53.2341V66.0915ZM32.2635 65.3829L30.9817 62.6515C31.2626 62.4359 31.5836 62.2657 31.9302 62.1487C32.2544 62.0419 32.5973 61.9877 32.9429 61.9887C33.3083 61.9913 33.6696 62.0573 34.0068 62.1829C34.3335 62.2978 34.6366 62.46 34.9041 62.6629L33.6222 65.3944H32.2507L32.2635 65.3829ZM27.8541 65.3829H27.0337C26.7468 65.3836 26.4615 65.3451 26.1877 65.2687C25.937 65.2007 25.7023 65.0922 25.4955 64.9487C25.2946 64.8079 25.1324 64.6281 25.0212 64.4229C24.9057 64.2012 24.8487 63.9588 24.8546 63.7144C24.8493 63.4687 24.9109 63.2256 25.0341 63.0058C25.153 62.7954 25.3187 62.6087 25.5212 62.4572C25.7266 62.3036 25.9609 62.1836 26.2133 62.1029C26.4724 62.0198 26.7456 61.9772 27.0209 61.9772H27.8284V65.4058L27.8541 65.3829ZM50.1064 65.3829H48.8246C48.4465 65.3953 48.0701 65.3328 47.7222 65.2001C47.457 65.0815 47.2381 64.8943 47.0942 64.6629C47.1297 64.4435 47.1383 64.2212 47.1198 64.0001V61.7144H46.3251V64.1144C46.3449 64.4721 46.2121 64.8233 45.9533 65.0972C45.808 65.2262 45.6331 65.3257 45.4406 65.3888C45.2481 65.452 45.0426 65.4772 44.8382 65.4629C44.6192 65.464 44.402 65.4292 44.1972 65.3601C44.0175 65.3147 43.8482 65.2412 43.6973 65.1429C43.5574 65.0308 43.4441 64.8948 43.3641 64.7429C43.2831 64.589 43.2395 64.4215 43.2359 64.2515V61.7144H42.4283V64.1829C42.4335 64.3747 42.3942 64.5653 42.313 64.7429C42.2479 64.8869 42.1471 65.0158 42.0182 65.1201C41.8917 65.2191 41.7432 65.2931 41.5823 65.3372C41.4164 65.3833 41.2434 65.4064 41.0696 65.4058H39.5314V61.7144H38.7239V65.3944H34.5195L35.8911 62.4001C35.6757 62.2315 35.4488 62.075 35.2117 61.9315C34.9746 61.7896 34.7262 61.6636 34.4682 61.5544C34.2218 61.4452 33.9643 61.3572 33.6992 61.2915C33.4484 61.2312 33.1898 61.2005 32.9301 61.2001C32.6661 61.1999 32.4032 61.2306 32.1482 61.2915C31.8798 61.3549 31.6182 61.439 31.3662 61.5429C31.1061 61.6527 30.8573 61.7827 30.6228 61.9315C30.39 62.0753 30.1673 62.2317 29.9563 62.4001L31.3662 65.3829H28.636V61.2572H27.3542C26.8973 61.2515 26.4425 61.3133 26.0083 61.4401C25.6253 61.5523 25.269 61.7266 24.9572 61.9544C24.67 62.1663 24.4382 62.4315 24.2778 62.7315C24.1176 63.0354 24.0344 63.3671 24.0342 63.7029C24.0224 64.0791 24.1148 64.452 24.3034 64.7887C24.4733 65.0835 24.7193 65.3381 25.0212 65.5315C25.3396 65.7286 25.6959 65.872 26.0723 65.9544C26.4914 66.0481 26.9221 66.0941 27.3542 66.0915H27.8284V66.2858C27.8447 66.435 27.8207 66.5855 27.7582 66.7248C27.6958 66.864 27.5968 66.9878 27.4695 67.0858C27.1701 67.2616 26.8147 67.3458 26.4569 67.3258C26.233 67.3297 26.0093 67.3105 25.7903 67.2687C25.5569 67.215 25.3295 67.1423 25.111 67.0515L24.8546 67.7372C25.1228 67.8278 25.3967 67.9041 25.675 67.9658C25.9099 68.0176 26.1508 68.0445 26.3928 68.0458C26.6995 68.0714 27.0088 68.041 27.3019 67.9565C27.595 67.872 27.8657 67.7352 28.0976 67.5544C28.4647 67.1884 28.6538 66.7074 28.6232 66.2172V66.0915H41.0183C41.3796 66.0994 41.737 66.0246 42.0566 65.8744C42.3509 65.7324 42.6017 65.5283 42.7873 65.2801C42.9781 65.5654 43.2529 65.7986 43.582 65.9544C43.9508 66.1215 44.3605 66.204 44.7741 66.1944C45.2158 66.2114 45.6555 66.133 46.0559 65.9658C46.3936 65.8196 46.6682 65.5787 46.8378 65.2801C46.9086 65.3856 46.9901 65.485 47.0813 65.5772C47.1879 65.6828 47.3135 65.7716 47.4531 65.8401C47.6268 65.9227 47.8122 65.9842 48.0042 66.0229C48.1937 66.0619 48.3868 66.0849 48.5811 66.0915H50.8883V59.7029H50.0936V65.4172L50.1064 65.3829ZM121.888 65.0629C121.785 65.2846 121.633 65.4857 121.442 65.6545C121.25 65.8233 121.023 65.9563 120.773 66.0458C120.508 66.1386 120.225 66.1851 119.94 66.1829C119.688 66.1749 119.44 66.1245 119.209 66.0344C118.964 65.9407 118.742 65.8048 118.556 65.6344C118.368 65.4634 118.22 65.2615 118.12 65.0401C118.003 64.8138 117.938 64.569 117.927 64.3201C117.925 64.0697 117.977 63.8212 118.081 63.5887C118.179 63.3684 118.322 63.1667 118.504 62.9944C118.686 62.8247 118.904 62.6888 119.145 62.5944C119.404 62.4931 119.683 62.4425 119.966 62.4458C120.255 62.4416 120.542 62.4882 120.812 62.5829C121.059 62.6737 121.285 62.8055 121.478 62.9715C121.671 63.1405 121.824 63.3427 121.927 63.5658C122.038 63.8047 122.095 64.0612 122.093 64.3201C122.095 64.5753 122.039 64.8281 121.927 65.0629M114.159 65.0629C114.056 65.285 113.905 65.4864 113.713 65.6552C113.522 65.824 113.294 65.9568 113.044 66.0458C112.778 66.1386 112.496 66.1851 112.211 66.1829C111.928 66.1856 111.649 66.1349 111.39 66.0344C111.145 65.9407 110.923 65.8048 110.736 65.6344C110.549 65.4634 110.401 65.2615 110.301 65.0401C110.197 64.8113 110.145 64.5667 110.147 64.3201C110.144 64.0697 110.197 63.8213 110.301 63.5887C110.398 63.3685 110.542 63.1669 110.724 62.9944C110.906 62.8247 111.123 62.6888 111.365 62.5944C111.623 62.4931 111.903 62.4425 112.185 62.4458C112.474 62.4416 112.762 62.4882 113.031 62.5829C113.279 62.6737 113.505 62.8055 113.697 62.9715C113.891 63.1405 114.043 63.3427 114.146 63.5658C114.253 63.8056 114.305 64.062 114.3 64.3201C114.302 64.5753 114.246 64.8282 114.133 65.0629M94.6624 65.3829H93.9062C93.6191 65.3853 93.3335 65.3467 93.0602 65.2687C92.8081 65.1979 92.5733 65.0855 92.368 64.9372C92.1721 64.7903 92.0146 64.607 91.9065 64.4001C91.7904 64.1745 91.7334 63.9283 91.7399 63.6801C91.7351 63.4381 91.7967 63.1988 91.9193 62.9829C92.0392 62.773 92.2048 62.5865 92.4064 62.4344C92.6122 62.284 92.8467 62.1678 93.0986 62.0915C93.3539 62.0107 93.6225 61.9682 93.8933 61.9658H94.6881V65.3944L94.6624 65.3829ZM125.426 65.3829H122.645C122.814 65.0532 122.902 64.6944 122.901 64.3315C122.902 63.9783 122.824 63.6285 122.67 63.3029C122.528 62.9949 122.319 62.7151 122.055 62.4797C121.791 62.2442 121.477 62.0579 121.132 61.9315C120.768 61.7906 120.375 61.7168 119.978 61.7144C119.595 61.713 119.215 61.783 118.863 61.9201C118.343 62.1256 117.902 62.4624 117.595 62.8889C117.287 63.3155 117.127 63.813 117.133 64.3201C117.132 64.5045 117.153 64.6884 117.197 64.8687C117.24 65.0406 117.3 65.2088 117.376 65.3715H114.877C115.042 65.0409 115.125 64.6821 115.12 64.3201C115.122 63.9669 115.043 63.617 114.89 63.2915C114.748 62.9835 114.539 62.7037 114.275 62.4682C114.011 62.2328 113.697 62.0465 113.351 61.9201C112.986 61.7834 112.594 61.7135 112.198 61.7144C111.814 61.713 111.434 61.783 111.083 61.9201C110.394 62.1862 109.851 62.6829 109.57 63.3029C109.422 63.6257 109.348 63.9715 109.352 64.3201C109.351 64.5045 109.372 64.6884 109.416 64.8687C109.46 65.0405 109.52 65.2088 109.596 65.3715H107.032V59.6572H106.25V65.3715H103.686V64.2287C103.689 63.9661 103.65 63.7044 103.571 63.4515C103.498 63.2186 103.367 63.0036 103.187 62.8229C103.004 62.6535 102.787 62.5176 102.546 62.4229C102.231 62.3161 101.895 62.2656 101.559 62.2744H97.9695L99.4821 59.7029H98.5976L97.0594 62.2629C97.0817 62.4008 97.1248 62.5354 97.1876 62.6629C97.2457 62.7795 97.3235 62.8874 97.4183 62.9829H101.507C101.731 62.9781 101.953 63.0131 102.161 63.0858C102.335 63.1469 102.489 63.245 102.61 63.3715C102.723 63.4897 102.803 63.631 102.84 63.7829C102.862 63.9538 102.862 64.1263 102.84 64.2972V65.4401H95.4956V61.2572H94.2138C93.7528 61.2526 93.294 61.3143 92.8551 61.4401C92.4763 61.5474 92.1239 61.718 91.8168 61.9429C91.5354 62.1575 91.3095 62.4239 91.1546 62.7238C90.9997 63.0237 90.9195 63.3499 90.9195 63.6801C90.8968 64.0754 90.9895 64.4692 91.1887 64.8229C91.3613 65.1161 91.6068 65.3702 91.9065 65.5658C92.2232 65.7681 92.5798 65.9155 92.9576 66.0001C93.3761 66.0964 93.8072 66.1426 94.2394 66.1372H110.121C110.381 66.3883 110.695 66.5903 111.044 66.7315C111.411 66.8785 111.809 66.9526 112.211 66.9487C112.62 66.95 113.026 66.8761 113.403 66.7315C113.766 66.5955 114.094 66.3931 114.364 66.1372H117.927C118.187 66.3883 118.501 66.5903 118.85 66.7315C119.217 66.8789 119.615 66.953 120.017 66.9487C120.427 66.95 120.832 66.8761 121.209 66.7315C121.572 66.5952 121.9 66.3928 122.17 66.1372H126.246V59.7029H125.4V65.4172L125.426 65.3829ZM128.554 66.0915H129.348V59.7029H128.554V66.0915ZM69.5901 67.6572H70.4104V66.9258H69.5388V67.6572H69.5901ZM77.422 65.3715L76.1402 62.6401C76.4212 62.4246 76.7422 62.2545 77.0887 62.1372C77.4128 62.0305 77.7558 61.9763 78.1013 61.9772C78.4711 61.9784 78.8369 62.0444 79.1781 62.1715C79.5046 62.2866 79.8078 62.4488 80.0753 62.6515L78.7935 65.3829H77.3707L77.422 65.3715ZM83.1004 65.3715H79.6395L81.0367 62.3887C80.8214 62.22 80.5945 62.0635 80.3573 61.9201C80.1202 61.7783 79.8717 61.6522 79.6139 61.5429C79.3674 61.4339 79.1099 61.3459 78.8448 61.2801C78.594 61.2197 78.3354 61.1889 78.0757 61.1887C77.8117 61.1886 77.5488 61.2193 77.2938 61.2801C77.0298 61.344 76.7725 61.4281 76.5247 61.5315C76.2645 61.6412 76.0157 61.7713 75.7812 61.9201C75.5486 62.0641 75.326 62.2206 75.1147 62.3887L76.5247 65.3715H73.5509V61.2572H72.7433V66.2858C72.7573 66.457 72.7573 66.6289 72.7433 66.8001C72.7296 66.9199 72.6905 67.0362 72.628 67.1429C72.5746 67.2241 72.4939 67.2881 72.3972 67.3258C72.2792 67.3678 72.1525 67.3872 72.0255 67.3829H71.5641L71.359 68.0687C71.5718 68.1215 71.7917 68.1484 72.0127 68.1487C72.2637 68.156 72.5134 68.113 72.7433 68.0229C72.9355 67.9414 73.0994 67.8151 73.2176 67.6572C73.3452 67.484 73.4324 67.2897 73.474 67.0858C73.5306 66.8222 73.5564 66.5541 73.5509 66.2858V66.0915H83.8054V59.7029H83.0363V65.4172L83.1004 65.3715ZM22.2653 61.8744C22.0653 61.6753 21.8208 61.5157 21.5475 61.4058C21.2429 61.2938 20.9156 61.2393 20.5862 61.2458H19.9965V61.9544H20.7015C20.8925 61.9554 21.0808 61.9944 21.2527 62.0687C21.4191 62.1352 21.5677 62.2326 21.6885 62.3544C21.7959 62.4762 21.8744 62.6161 21.9192 62.7658C21.9657 62.9417 21.9873 63.1222 21.9833 63.3029V65.3715H18.2276V66.0801H22.7781V63.2915C22.7799 63.0244 22.7367 62.7586 22.6499 62.5029C22.5754 62.2706 22.4441 62.056 22.2653 61.8744ZM66.6547 67.6687H67.4751V66.9372H66.6547V67.6687ZM61.7838 65.3829H60.9506C60.6636 65.3855 60.3779 65.3469 60.1046 65.2687C59.8526 65.1979 59.6177 65.0855 59.4124 64.9372C59.2212 64.7891 59.0681 64.6059 58.9638 64.4001C58.8481 64.1744 58.7911 63.9282 58.7972 63.6801C58.7884 63.4391 58.8456 63.1998 58.9638 62.9829C59.0836 62.773 59.2492 62.5865 59.4509 62.4344C59.6568 62.2842 59.8912 62.1681 60.1431 62.0915C60.3983 62.0107 60.6669 61.9682 60.9378 61.9658H61.7325V65.3944L61.7838 65.3829ZM70.3848 61.2572H69.5516V65.3829H66.5265V61.2572H65.7318V65.3829H62.5529V61.2572H61.2711C60.8101 61.2526 60.3512 61.3143 59.9123 61.4401C59.5337 61.5476 59.1814 61.7183 58.8741 61.9429C58.593 62.1528 58.3657 62.4139 58.2075 62.7087C58.0535 63.01 57.9748 63.3375 57.9768 63.6687C57.954 64.064 58.0468 64.4578 58.246 64.8115C58.4186 65.1047 58.6641 65.3588 58.9638 65.5544C59.2805 65.7567 59.637 65.904 60.0149 65.9887C60.4334 66.085 60.8645 66.1311 61.2967 66.1258H70.3592V61.2572H70.3848ZM65.2575 67.6687H66.0779V66.9372H65.2062V67.6687H65.2575ZM11.7544 59.6687H10.8956V60.4001H11.716V59.7029L11.7544 59.6687ZM94.1369 59.6687H93.2653V60.4001H94.0856V59.7029L94.1369 59.6687ZM62.5913 59.6687H61.7197V60.4001H62.5401V59.7029L62.5913 59.6687ZM16.4459 67.6687H17.2662V66.9372H16.4331V67.6687H16.4459ZM61.1557 59.6687H60.3225V60.4001H61.1429V59.7029L61.1557 59.6687ZM13.126 59.6687H12.2928V60.4001H13.1132V59.7029L13.126 59.6687ZM15.0487 67.6687H15.8691V66.9372H15.0359V67.6687H15.0487ZM12.3312 65.3829H11.5365C11.2495 65.3855 10.9638 65.3469 10.6905 65.2687C10.4384 65.1982 10.2035 65.0857 9.99834 64.9372C9.80215 64.7906 9.6446 64.6072 9.53689 64.4001C9.42073 64.1745 9.36374 63.9283 9.37025 63.6801C9.3655 63.4381 9.4271 63.1988 9.5497 62.9829C9.67012 62.7734 9.83563 62.587 10.0368 62.4344C10.2427 62.2842 10.4772 62.1681 10.729 62.0915C10.9883 62.0092 11.2613 61.9667 11.5365 61.9658H12.3184V65.3944L12.3312 65.3829ZM17.1124 61.2572H16.3049V65.3829H13.1132V61.2572H11.8313C11.3703 61.2526 10.9115 61.3143 10.4726 61.4401C10.0941 61.5479 9.7418 61.7185 9.43434 61.9429C9.15332 62.1528 8.92603 62.4139 8.7678 62.7087C8.6138 63.01 8.53508 63.3375 8.53707 63.6687C8.51429 64.064 8.60705 64.4578 8.80625 64.8115C8.97887 65.1047 9.2244 65.3588 9.52407 65.5544C9.84058 65.7569 10.1972 65.9043 10.5752 65.9887C10.9937 66.085 11.4248 66.1311 11.857 66.1258H17.0996V61.2572H17.1124ZM86.1896 66.0915H86.9843V59.7029H86.1768V66.0915H86.1896ZM95.5084 59.7029H94.6624V60.4344H95.4956V59.7029H95.5084ZM9.34461 70.7772H10.3444V73.3372L13.0619 70.7772H14.2924L11.9211 72.9601L14.4078 75.8629H13.1901L11.2289 73.5772L10.3444 74.3886V75.8629H9.34461V70.7772ZM15.3179 70.7772H16.3177V75.8629H15.3179V70.7772ZM17.8687 70.7772H18.8044L21.868 74.2858V70.7772H22.855V75.8629H22.009L18.8557 72.2401V75.8629H17.8687V70.7772ZM24.0983 73.3372C24.0932 72.9908 24.1659 72.6469 24.3122 72.3259C24.4586 72.0049 24.6755 71.7133 24.9503 71.4683C25.2251 71.2233 25.5522 71.0298 25.9122 70.8994C26.2722 70.7689 26.6579 70.704 27.0465 70.7087C27.8494 70.6743 28.6357 70.9203 29.2384 71.3944L28.5975 72.0687C28.1661 71.7036 27.5898 71.5063 26.9952 71.5201C26.741 71.5289 26.4912 71.5823 26.2601 71.6773C26.0291 71.7723 25.8213 71.907 25.6487 72.0736C25.476 72.2403 25.342 72.4357 25.2541 72.6486C25.1662 72.8614 25.1263 73.0877 25.1366 73.3144C25.1187 73.5503 25.1562 73.787 25.2466 74.0094C25.337 74.2317 25.4783 74.4348 25.6616 74.6058C25.8449 74.7767 26.0661 74.9118 26.3112 75.0023C26.5563 75.0928 26.8198 75.1368 27.085 75.1315C27.5809 75.1357 28.0656 74.9997 28.4693 74.7429V73.7944H27.0209V73.0172H29.482V75.1544C28.8194 75.6642 27.973 75.9442 27.0978 75.9429C26.7064 75.959 26.3154 75.9025 25.9497 75.7769C25.5841 75.6514 25.2516 75.4596 24.9733 75.2136C24.695 74.9676 24.477 74.6728 24.333 74.3479C24.189 74.023 24.1222 73.6749 24.1368 73.3258M32.9685 75.0515C33.2287 75.0677 33.4897 75.0349 33.7347 74.9553C33.9797 74.8756 34.2031 74.7509 34.3905 74.5892C34.5779 74.4275 34.725 74.2325 34.8223 74.0168C34.9196 73.8011 34.965 73.5696 34.9553 73.3372C34.9648 73.1044 34.9195 72.8724 34.8223 72.6562C34.7251 72.4399 34.5782 72.2442 34.391 72.0817C34.2039 71.9191 33.9806 71.7933 33.7356 71.7123C33.4906 71.6313 33.2293 71.597 32.9685 71.6115H31.8405V75.0401H32.9685V75.0515ZM30.8407 70.7772H32.9685C33.357 70.7538 33.7467 70.8016 34.1136 70.9179C34.4805 71.0341 34.8167 71.2162 35.1015 71.453C35.3863 71.6898 35.6135 71.9761 35.7692 72.2943C35.9248 72.6125 36.0056 72.9558 36.0064 73.3029C36.0072 73.6515 35.9278 73.9965 35.773 74.3167C35.6183 74.6368 35.3915 74.9252 35.1068 75.1641C34.8221 75.4029 34.4854 75.5872 34.1176 75.7054C33.7498 75.8237 33.3587 75.8734 32.9685 75.8515H30.8407V70.7772ZM41.8772 73.3372C41.8857 73.1038 41.8418 72.8712 41.7478 72.6532C41.6539 72.4351 41.512 72.2361 41.3304 72.0678C41.1488 71.8995 40.9312 71.7653 40.6904 71.6732C40.4497 71.5811 40.1907 71.5329 39.9288 71.5315C39.6691 71.5329 39.4124 71.5808 39.1739 71.6725C38.9354 71.7641 38.72 71.8976 38.5406 72.0651C38.3612 72.2325 38.2214 72.4304 38.1296 72.647C38.0377 72.8636 37.9957 73.0944 38.0061 73.3258C37.9975 73.5592 38.0415 73.7918 38.1354 74.0098C38.2293 74.2279 38.3713 74.4269 38.5529 74.5952C38.7345 74.7635 38.9521 74.8977 39.1928 74.9898C39.4335 75.0819 39.6925 75.1301 39.9544 75.1315C40.2141 75.1302 40.4709 75.0822 40.7094 74.9906C40.9479 74.8989 41.1632 74.7654 41.3426 74.598C41.522 74.4305 41.6618 74.2326 41.7536 74.016C41.8455 73.7994 41.8875 73.5686 41.8772 73.3372ZM36.955 73.3372C36.955 72.631 37.2696 71.9537 37.8297 71.4543C38.3898 70.9549 39.1495 70.6744 39.9416 70.6744C40.7337 70.6744 41.4934 70.9549 42.0535 71.4543C42.6136 71.9537 42.9282 72.631 42.9282 73.3372C42.9282 74.0435 42.6136 74.7208 42.0535 75.2201C41.4934 75.7195 40.7337 76.0001 39.9416 76.0001C39.1495 76.0001 38.3898 75.7195 37.8297 75.2201C37.2696 74.7208 36.955 74.0435 36.955 73.3372ZM44.1844 70.7772H45.2483L46.9916 73.1772L48.7221 70.7772H49.7988V75.8629H48.7862V72.2172L46.9916 74.6058H46.9532L45.1714 72.2287V75.8629H44.1844V70.7772ZM58.3998 73.3372C58.4121 73.098 58.3693 72.8591 58.2738 72.6353C58.1783 72.4115 58.0324 72.2076 57.8449 72.0362C57.6574 71.8647 57.4324 71.7295 57.1839 71.6387C56.9354 71.548 56.6686 71.5037 56.4002 71.5087C56.1405 71.51 55.8837 71.5579 55.6452 71.6496C55.4067 71.7413 55.1914 71.8748 55.012 72.0422C54.8326 72.2096 54.6928 72.4075 54.6009 72.6241C54.5091 72.8407 54.4671 73.0716 54.4774 73.3029C54.4689 73.5364 54.5128 73.769 54.6067 73.987C54.7007 74.205 54.8426 74.4041 55.0242 74.5724C55.2058 74.7407 55.4234 74.8749 55.6641 74.967C55.9049 75.0591 56.1638 75.1073 56.4258 75.1087C56.6855 75.1073 56.9422 75.0594 57.1807 74.9677C57.4192 74.876 57.6346 74.7425 57.814 74.5751C57.9934 74.4077 58.1332 74.2098 58.225 73.9932C58.3168 73.7766 58.3588 73.5457 58.3485 73.3144M53.4263 73.3144C53.4263 72.6081 53.741 71.9308 54.3011 71.4314C54.8612 70.9321 55.6209 70.6515 56.413 70.6515C57.2051 70.6515 57.9647 70.9321 58.5248 71.4314C59.0849 71.9308 59.3996 72.6081 59.3996 73.3144C59.3996 74.0206 59.0849 74.6979 58.5248 75.1973C57.9647 75.6967 57.2051 75.9772 56.413 75.9772C55.6209 75.9772 54.8612 75.6967 54.3011 75.1973C53.741 74.6979 53.4263 74.0206 53.4263 73.3144ZM60.6942 70.7772H64.9499V71.5887H61.7069V72.9715H64.591V73.7944H61.7069V75.8629H60.6942V70.7772ZM68.1288 75.1201L68.7312 74.4801C69.2164 74.899 69.8632 75.1362 70.5386 75.1429C70.6527 75.1643 70.7704 75.1644 70.8845 75.1433C70.9986 75.1221 71.1066 75.0802 71.2017 75.0201C71.2968 74.96 71.3769 74.8831 71.437 74.7941C71.4972 74.7051 71.5361 74.606 71.5512 74.5029C71.5512 74.1372 71.3205 73.9429 70.2694 73.7258C69.2183 73.5087 68.3595 73.1429 68.3595 72.2058C68.3702 71.9921 68.4302 71.7828 68.5357 71.5907C68.6413 71.3987 68.7902 71.2282 68.9731 71.0898C69.1559 70.9514 69.3689 70.8482 69.5986 70.7865C69.8282 70.7249 70.0697 70.7061 70.3079 70.7315C71.0634 70.718 71.7996 70.9449 72.3844 71.3715L71.782 72.0001C71.3446 71.6764 70.799 71.4915 70.231 71.4744C70.1246 71.4564 70.0152 71.4581 69.9095 71.4792C69.8039 71.5004 69.7042 71.5405 69.6165 71.5972C69.5289 71.654 69.4552 71.726 69.4 71.8091C69.3447 71.8921 69.3091 71.9843 69.2952 72.0801C69.2952 72.4687 69.5516 72.6515 70.654 72.8801C71.7563 73.1087 72.487 73.5315 72.487 74.3658C72.485 74.5888 72.4305 74.8089 72.3268 75.0119C72.2231 75.2149 72.0727 75.3961 71.8853 75.5438C71.6979 75.6915 71.4777 75.8023 71.239 75.8691C71.0004 75.9359 70.7486 75.9572 70.5002 75.9315C69.6197 75.936 68.7691 75.6466 68.116 75.1201M77.0631 73.8401L76.0761 71.8058L75.1019 73.8401H77.0759H77.0631ZM75.6274 70.7315H76.5632L79.1268 75.8515H78.0116L77.4348 74.6287H74.7302L74.1405 75.8515H73.0638L75.6274 70.7315ZM79.6652 73.7029V70.7772H80.665V73.6687C80.6326 73.8522 80.6463 74.0398 80.705 74.2181C80.7637 74.3963 80.866 74.5608 81.0045 74.6996C81.143 74.8384 81.3143 74.9481 81.506 75.0208C81.6978 75.0935 81.9052 75.1274 82.1134 75.1201C82.3187 75.131 82.5242 75.1007 82.7145 75.0313C82.9049 74.9618 83.0753 74.8551 83.2132 74.7191C83.351 74.583 83.4528 74.421 83.5109 74.2451C83.5691 74.0692 83.5821 73.8839 83.5491 73.7029V70.7772H84.6002V73.6687C84.6436 73.9701 84.6107 74.2764 84.5039 74.565C84.3971 74.8537 84.2191 75.1173 83.983 75.3366C83.747 75.5558 83.4588 75.7251 83.1397 75.832C82.8206 75.9389 82.4787 75.9807 82.1391 75.9544C81.8004 75.9815 81.4592 75.94 81.141 75.833C80.8228 75.726 80.5359 75.5562 80.3017 75.3364C80.0675 75.1166 79.892 74.8524 79.7884 74.5636C79.6849 74.2748 79.6559 73.9688 79.7036 73.6687M88.1636 75.0515C88.4237 75.0677 88.6848 75.0349 88.9298 74.9553C89.1748 74.8756 89.3982 74.7509 89.5856 74.5892C89.773 74.4275 89.9201 74.2325 90.0174 74.0168C90.1147 73.8011 90.1601 73.5696 90.1504 73.3372C90.1599 73.1044 90.1146 72.8724 90.0174 72.6562C89.9202 72.4399 89.7733 72.2442 89.5861 72.0817C89.3989 71.9191 89.1757 71.7933 88.9307 71.7123C88.6857 71.6313 88.4244 71.597 88.1636 71.6115H87.0356V75.0401H88.1636V75.0515ZM86.0358 70.7772H88.1636C88.5521 70.7538 88.9418 70.8016 89.3087 70.9179C89.6756 71.0341 90.0118 71.2162 90.2966 71.453C90.5813 71.6898 90.8086 71.9761 90.9642 72.2943C91.1199 72.6125 91.2007 72.9558 91.2015 73.3029C91.2023 73.6515 91.1229 73.9965 90.9681 74.3167C90.8134 74.6368 90.5866 74.9252 90.3019 75.1641C90.0171 75.4029 89.6805 75.5872 89.3127 75.7054C88.9449 75.8237 88.5538 75.8734 88.1636 75.8515H86.0358V70.7772ZM92.4833 70.7772H93.4832V75.8629H92.4833V70.7772ZM100.931 73.8401L99.982 71.8058L98.9565 73.8401H100.931ZM99.4949 70.7315H100.431L102.994 75.8515H101.879L101.264 74.6287H98.5848L97.9952 75.8515H96.9697L99.4949 70.7315ZM106.391 73.2915C106.532 73.3126 106.676 73.3069 106.815 73.2747C106.953 73.2425 107.082 73.1846 107.194 73.1047C107.305 73.0248 107.396 72.9248 107.461 72.8112C107.526 72.6976 107.563 72.5731 107.57 72.4458C107.569 72.3162 107.536 72.1884 107.473 72.0715C107.411 71.9547 107.32 71.8516 107.207 71.7697C107.094 71.6878 106.963 71.6291 106.822 71.5978C106.681 71.5665 106.534 71.5634 106.391 71.5887H104.891V73.2915H106.391ZM103.827 70.7772H106.391C106.997 70.7482 107.591 70.933 108.045 71.2915C108.207 71.4433 108.332 71.6229 108.414 71.8194C108.495 72.0159 108.531 72.2251 108.519 72.4344C108.531 72.7927 108.401 73.1433 108.153 73.4252C107.905 73.7071 107.553 73.9025 107.16 73.9772L108.698 75.9087H107.558L106.148 74.1372H104.866V75.9087H103.827V70.7772ZM113.428 73.8401L112.441 71.8058L111.518 73.8401H113.492H113.428ZM111.993 70.7315H112.928L115.492 75.8515H114.377L113.8 74.6287H111.095L110.506 75.8515H109.48L111.993 70.7315ZM119.043 75.0744C119.167 75.103 119.297 75.1071 119.424 75.0863C119.55 75.0656 119.67 75.0204 119.775 74.954C119.88 74.8876 119.968 74.8016 120.032 74.702C120.095 74.6024 120.134 74.4916 120.145 74.3772C120.145 73.9544 119.76 73.6915 118.966 73.6915H117.376V75.0858H119.043V75.0744ZM118.748 72.9144C118.87 72.9412 118.997 72.9441 119.12 72.923C119.244 72.902 119.361 72.8573 119.463 72.7922C119.565 72.727 119.65 72.643 119.713 72.5457C119.775 72.4484 119.813 72.3403 119.825 72.2287C119.815 72.1244 119.78 72.0232 119.722 71.932C119.665 71.8407 119.586 71.7616 119.491 71.6998C119.396 71.6381 119.288 71.5952 119.173 71.574C119.058 71.5529 118.939 71.554 118.825 71.5772H117.376V72.9144H118.748ZM116.389 70.7772H118.953C119.223 70.76 119.495 70.7905 119.753 70.867C120.01 70.9435 120.248 71.0644 120.453 71.2229C120.578 71.3328 120.678 71.4646 120.744 71.6101C120.81 71.7556 120.842 71.9117 120.837 72.0687C120.844 72.3104 120.769 72.5484 120.623 72.7521C120.477 72.9558 120.266 73.1158 120.017 73.2115C120.339 73.2652 120.63 73.4182 120.839 73.6439C121.047 73.8695 121.16 74.1534 121.158 74.4458C121.158 75.3601 120.312 75.8401 119.043 75.8401H116.389V70.7772ZM122.401 70.7772H123.401V75.8629H122.401V70.7772ZM128.31 73.8401L127.323 71.8058L126.349 73.8401H128.323H128.31ZM126.9 70.7315H127.836L130.4 75.8515H129.336L128.759 74.6287H125.977L125.388 75.8515H124.337L126.9 70.7315Z" fill="white"/>
</g>
<defs>
<filter id="filter0_d_1652_59784" x="-4" y="0" width="149" height="88" filterUnits="userSpaceOnUse" color-interpolation-filters="sRGB">
<feFlood flood-opacity="0" result="BackgroundImageFix"/>
<feColorMatrix in="SourceAlpha" type="matrix" values="0 0 0 0 0 0 0 0 0 0 0 0 0 0 0 0 0 0 127 0" result="hardAlpha"/>
<feOffset dy="4"/>
<feGaussianBlur stdDeviation="2"/>
<feComposite in2="hardAlpha" operator="out"/>
<feColorMatrix type="matrix" values="0 0 0 0 0 0 0 0 0 0 0 0 0 0 0 0 0 0 0.25 0"/>
<feBlend mode="normal" in2="BackgroundImageFix" result="effect1_dropShadow_1652_59784"/>
<feBlend mode="normal" in="SourceGraphic" in2="effect1_dropShadow_1652_59784" result="shape"/>
</filter>
</defs>
</svg>
